<?xml version="1.0" encoding="UTF-8" standalone="no"?>
<svg
   xmlns:dc="http://purl.org/dc/elements/1.1/"
   xmlns:cc="http://creativecommons.org/ns#"
   xmlns:rdf="http://www.w3.org/1999/02/22-rdf-syntax-ns#"
   xmlns:svg="http://www.w3.org/2000/svg"
   xmlns="http://www.w3.org/2000/svg"
   xmlns:sodipodi="http://sodipodi.sourceforge.net/DTD/sodipodi-0.dtd"
   xmlns:inkscape="http://www.inkscape.org/namespaces/inkscape"
   fill="none"
   height="2500"
   viewBox="204.925 153.577 757.617 860.543"
   width="2500"
   version="1.1"
   id="svg16"
   sodipodi:docname="csharp-logo.svg"
   inkscape:version="1.0.1 (3bc2e813f5, 2020-09-07)">
  <metadata
     id="metadata22">
    <rdf:RDF>
      <cc:Work
         rdf:about="">
        <dc:format>image/svg+xml</dc:format>
        <dc:type
           rdf:resource="http://purl.org/dc/dcmitype/StillImage" />
      </cc:Work>
    </rdf:RDF>
  </metadata>
  <defs
     id="defs20" />
  <sodipodi:namedview
     pagecolor="#ffffff"
     bordercolor="#666666"
     borderopacity="1"
     objecttolerance="10"
     gridtolerance="10"
     guidetolerance="10"
     inkscape:pageopacity="0"
     inkscape:pageshadow="2"
     inkscape:window-width="1920"
     inkscape:window-height="1027"
     id="namedview18"
     showgrid="false"
     inkscape:zoom="0.344"
     inkscape:cx="1250"
     inkscape:cy="1250"
     inkscape:window-x="1912"
     inkscape:window-y="-8"
     inkscape:window-maximized="1"
     inkscape:current-layer="svg16"
     inkscape:document-rotation="0" />
  <path
     id="path2"
     style="fill:#000000;stroke-width:2.90514"
     d="M 1251.0039 12.115234 C 1211.053 11.814519 1171.216 23.690656 1130.6602 47.464844 C 1014.0332 115.95067 429.54515 450.90927 255.96289 551.94141 C 184.08676 593.30192 149.50781 657.0417 149.50781 739.76562 L 149.50781 1759.5664 C 149.50781 1799.7665 158.11891 1835.3285 174.67773 1866.2617 L 173.91602 1866.6992 C 191.54733 1898.5686 218.67081 1925.6913 254.60742 1946.7129 C 428.86949 2047.7421 1012.6777 2382.0248 1129.3047 2451.1875 C 1135.6993 2454.9363 1142.0793 2458.3888 1148.4492 2461.5527 C 1220.9001 2497.995 1291.8757 2496.5175 1364.5918 2453.9004 C 1657.5144 2284.3853 1951.1145 2116.2268 2244.0371 1947.3887 C 2280.6506 1926.37 2307.0962 1899.9252 2324.7246 1867.3789 C 2341.6761 1836.1864 2350.4902 1800.25 2350.4902 1759.5664 L 2350.4902 1759.1816 C 2350.4903 1759.0837 2350.4922 1758.9867 2350.4922 1758.8887 L 2350.4922 739.08594 C 2350.4922 710.65058 2346.3245 684.13679 2337.7715 660.20703 C 2333.8838 649.32987 2329.0915 638.9879 2323.3711 629.24023 L 2323.3672 629.24219 C 2323.3672 629.24219 2323.3672 629.24023 2323.3672 629.24023 C 2305.7388 598.05063 2279.2939 572.28321 2244.0371 551.94141 C 1951.1145 383.10324 1657.5144 214.26785 1364.5918 45.429688 C 1326.1646 23.424232 1288.5336 12.397724 1251.0039 12.115234 z M 1145.5781 495.79492 C 1416.1224 495.79492 1652.0898 642.9345 1778.8848 861.26758 L 1460.877 1044.3457 C 1397.8179 935.85606 1280.5112 862.625 1146.2559 862.625 C 944.87134 862.625 782.13672 1025.3597 782.13672 1226.7441 C 782.13672 1292.5166 799.76854 1353.5424 830.28125 1407.1074 C 892.66337 1516.9538 1010.6438 1590.8633 1146.2559 1590.8633 C 1282.5477 1590.8633 1401.2087 1515.5975 1463.5879 1405.0742 L 1781.5996 1588.8301 C 1655.4816 1809.1997 1418.1598 1957.6934 1146.2559 1957.6934 C 875.03172 1957.6934 637.70984 1809.8762 511.5918 1590.8633 C 449.88657 1483.7303 414.63086 1358.9659 414.63086 1226.7441 C 414.63086 823.29833 741.45249 495.79492 1145.5781 495.79492 z M 1793.123 1053.8379 L 1865.6758 1053.8379 L 1865.6758 1112.8301 L 1953.8242 1112.8301 L 1953.8242 1053.8379 L 2026.377 1053.8379 L 2026.377 1112.8301 L 2085.3691 1112.8301 L 2085.3691 1185.3828 L 2026.377 1185.3828 L 2026.377 1272.8516 L 2085.3691 1272.8516 L 2085.3691 1345.4043 L 2026.377 1345.4043 L 2026.377 1404.3965 L 1953.8242 1404.3965 L 1953.8242 1345.4043 L 1865.6758 1345.4043 L 1865.6758 1404.3965 L 1793.123 1404.3965 L 1793.123 1345.4043 L 1734.8125 1345.4043 L 1734.8125 1272.8516 L 1793.123 1272.8516 L 1793.123 1185.3828 L 1734.8125 1185.3828 L 1734.8125 1112.8301 L 1793.123 1112.8301 L 1793.123 1053.8379 z M 1865.6758 1185.3828 L 1865.6758 1272.8516 L 1953.8242 1272.8516 L 1953.8242 1185.3828 L 1865.6758 1185.3828 z "
     transform="matrix(0.3442172,0,0,0.3442172,153.462,153.577)" />
</svg>
