<?xml version="1.0" encoding="UTF-8" standalone="no"?>
<!-- Uploaded to: SVG Repo, www.svgrepo.com, Generator: SVG Repo Mixer Tools -->

<svg
   width="800px"
   height="800px"
   viewBox="-13.5 0 283 283"
   version="1.1"
   preserveAspectRatio="xMidYMid"
   id="svg138"
   sodipodi:docname="jest-logo.svg"
   inkscape:version="1.2.1 (9c6d41e, 2022-07-14)"
   xmlns:inkscape="http://www.inkscape.org/namespaces/inkscape"
   xmlns:sodipodi="http://sodipodi.sourceforge.net/DTD/sodipodi-0.dtd"
   xmlns="http://www.w3.org/2000/svg"
   xmlns:svg="http://www.w3.org/2000/svg">
  <defs
     id="defs142" />
  <sodipodi:namedview
     id="namedview140"
     pagecolor="#ffffff"
     bordercolor="#000000"
     borderopacity="0.25"
     inkscape:showpageshadow="2"
     inkscape:pageopacity="0.0"
     inkscape:pagecheckerboard="0"
     inkscape:deskcolor="#d1d1d1"
     showgrid="false"
     inkscape:zoom="0.295"
     inkscape:cx="-1.6949153"
     inkscape:cy="400"
     inkscape:window-width="1512"
     inkscape:window-height="824"
     inkscape:window-x="0"
     inkscape:window-y="38"
     inkscape:window-maximized="1"
     inkscape:current-layer="svg138" />
  <g
     id="g136">
    <path
       id="path132"
       d="M 102.21563 12.832419 L 134.09666 106.90919 C 135.54155 107.19727 136.95318 107.57694 138.32301 108.04852 L 170.01196 43.97002 L 201.61247 108.43336 C 202.92519 107.9297 204.27751 107.51095 205.66402 107.17796 L 237.65283 12.832419 L 102.21563 12.832419 z M 169.96152 73.020356 L 149.41777 114.5618 C 154.10211 118.738 157.58427 124.23622 159.26335 130.46811 C 166.57313 130.19222 174.3695 130.19222 181.72164 130.46811 C 183.29677 124.62118 186.46005 119.4219 190.71324 115.35221 L 169.96152 73.020356 z M 127.70221 119.10666 C 126.70131 119.10666 125.71721 119.18201 124.75545 119.32637 C 115.20069 120.75458 107.848 129.0141 107.848 138.96088 C 107.848 145.94409 111.4754 152.09241 116.94186 155.63342 C 120.04529 157.64292 123.73839 158.8151 127.70221 158.8151 C 128.37846 158.8151 129.0469 158.781 129.70519 158.71491 C 138.16858 157.86286 145.07553 151.67161 147.01061 143.57137 C 147.36413 142.09119 147.55712 140.5482 147.55712 138.96088 C 147.55712 135.95881 146.88399 133.1129 145.68612 130.55931 C 145.05542 129.21451 144.27147 127.95516 143.36809 126.7945 C 139.73341 122.12235 134.06692 119.10666 127.70221 119.10666 z M 213.28208 119.10666 C 206.44644 119.10666 200.41685 122.58518 196.84376 127.85852 C 196.11297 128.93769 195.47661 130.08616 194.96653 131.30136 C 193.97654 133.65925 193.42786 136.24689 193.42786 138.96088 C 193.42786 140.74068 193.66699 142.46571 194.10841 144.10822 C 196.38161 152.5684 204.11485 158.8151 213.28208 158.8151 C 217.50319 158.8151 221.41854 157.48728 224.63939 155.23269 C 228.25226 152.70349 230.98757 149.0046 232.2913 144.6879 C 232.83859 142.87344 233.1363 140.95177 233.1363 138.96088 C 233.1363 128.6394 225.2195 120.13578 215.13927 119.19648 C 214.52718 119.13937 213.90892 119.10666 213.28208 119.10666 z M 41.798311 119.29528 C 30.850632 119.29528 21.944092 128.20182 21.944092 139.1495 C 21.944092 142.72194 22.897908 146.07425 24.556453 148.97366 C 26.847618 152.97855 30.489559 156.11499 34.860803 157.75108 C 37.021723 158.55886 39.358935 159.00372 41.798311 159.00372 C 42.257057 159.00372 42.711826 158.98269 43.162874 158.9519 C 49.609063 158.51176 55.217476 154.98356 58.518525 149.83662 C 60.499797 146.74858 61.65322 143.08188 61.65322 139.1495 C 61.65322 128.20182 52.74663 119.29528 41.798311 119.29528 z M 170.47764 143.09326 C 166.97841 143.09382 163.48416 143.15635 160.09521 143.2805 C 157.97343 159.26861 144.26071 171.64751 127.70221 171.64751 C 126.03982 171.64751 124.40682 171.52124 122.81052 171.28064 C 117.48585 179.68436 111.0074 187.54888 103.47241 194.65785 C 91.815121 205.65621 78.672135 213.80738 64.409292 218.88696 L 61.794167 219.81762 L 59.325518 218.5491 C 41.283631 209.2805 32.687899 189.66685 38.153718 171.62817 C 35.202984 171.29838 32.372071 170.57295 29.710701 169.50981 C 28.82593 171.36533 27.916933 173.23671 26.989175 175.14356 C 21.619596 186.17336 16.066817 197.57809 14.013044 209.96168 C 11.796946 223.3282 10.919161 247.72009 29.940776 260.90375 C 55.909031 278.90073 83.449316 265.2226 115.33893 249.3827 C 131.27379 241.46788 147.75094 233.28316 164.76305 229.08836 C 171.19705 227.50168 177.78309 226.55122 184.15229 225.63308 C 196.0412 223.91872 207.2707 222.29887 216.64132 216.87155 C 226.69396 211.049 233.56742 201.32722 235.49993 190.19797 C 236.96278 181.77051 235.59208 173.31024 231.9189 165.79129 C 226.62824 169.47731 220.20562 171.64751 213.28208 171.64751 C 196.72294 171.64751 183.00958 159.26713 180.88908 143.27773 C 177.48056 143.1539 173.97686 143.0927 170.47764 143.09326 z " />
  </g>
</svg>
