<?xml version="1.0" encoding="UTF-8" standalone="no"?>
<svg
   fill="none"
   height="512"
   viewBox="0 0 512 512"
   width="512"
   version="1.1"
   id="svg138"
   sodipodi:docname="ts-logo.svg"
   inkscape:version="1.2.1 (9c6d41e, 2022-07-14)"
   xmlns:inkscape="http://www.inkscape.org/namespaces/inkscape"
   xmlns:sodipodi="http://sodipodi.sourceforge.net/DTD/sodipodi-0.dtd"
   xmlns="http://www.w3.org/2000/svg"
   xmlns:svg="http://www.w3.org/2000/svg">
  <defs
     id="defs142" />
  <sodipodi:namedview
     id="namedview140"
     pagecolor="#ffffff"
     bordercolor="#000000"
     borderopacity="0.25"
     inkscape:showpageshadow="2"
     inkscape:pageopacity="0.0"
     inkscape:pagecheckerboard="0"
     inkscape:deskcolor="#d1d1d1"
     showgrid="false"
     inkscape:zoom="0.85510958"
     inkscape:cx="92.970541"
     inkscape:cy="292.36019"
     inkscape:window-width="2268"
     inkscape:window-height="1186"
     inkscape:window-x="1930"
     inkscape:window-y="337"
     inkscape:window-maximized="0"
     inkscape:current-layer="svg138" />
  <path
     id="rect134"
     d="M 50 0 C 22.300028 0 0 22.300028 0 50 L 0 462 C 0 489.69997 22.300028 512 50 512 L 462 512 C 489.69997 512 512 489.69997 512 462 L 512 50 C 512 22.300028 489.69997 0 462 0 L 50 0 z M 404.11133 238 C 415.79632 238 426.15274 238.70333 435.17773 240.11133 C 444.20273 241.51933 452.52463 243.68352 460.14062 246.60352 L 460.14062 293.38086 C 456.38463 290.77286 452.28946 288.47809 447.85547 286.49609 C 443.42047 284.5151 438.85515 282.87236 434.16016 281.56836 C 429.46416 280.26536 424.79534 279.29983 420.15234 278.67383 C 415.50935 278.04883 411.10268 277.73633 406.92969 277.73633 C 401.19069 277.73633 395.97334 278.28391 391.27734 279.37891 C 386.58235 280.47391 382.61976 282.01119 379.38477 283.99219 C 376.15077 285.97419 373.64509 288.34733 371.87109 291.11133 C 370.0971 293.87533 369.21094 296.97893 369.21094 300.41992 C 369.21094 304.17492 370.20355 307.53677 372.18555 310.50977 C 374.16754 313.48176 376.98472 316.29703 380.63672 318.95703 C 384.28872 321.61603 388.72246 324.2233 393.93945 326.7793 C 399.15645 329.33429 405.05005 331.96769 411.62305 334.67969 C 420.59604 338.43368 428.65769 342.42249 435.80469 346.64648 C 442.95168 350.87048 449.08136 355.6439 454.19336 360.96289 C 459.30635 366.28189 463.21864 372.35651 465.93164 379.1875 C 468.64464 386.01849 470 393.97093 470 403.04492 C 470 415.55991 467.6259 426.06641 462.87891 434.56641 C 458.13191 443.0664 451.68877 449.9508 443.55078 455.2168 C 435.41279 460.48379 425.94352 464.2646 415.14453 466.55859 C 404.34554 468.85359 392.94821 470 380.94922 470 C 368.63723 470 356.92644 468.95709 345.81445 466.87109 C 334.70246 464.7851 325.07744 461.65637 316.93945 457.48438 L 316.93945 407.42383 C 326.01644 415.03782 335.87559 420.74869 346.51758 424.55469 C 357.16057 428.36168 367.90682 430.26367 378.75781 430.26367 C 385.12281 430.26367 390.67779 429.69097 395.42578 428.54297 C 400.17278 427.39597 404.13832 425.80548 407.32031 423.77148 C 410.50231 421.73749 412.87641 419.34017 414.44141 416.57617 C 416.0064 413.81217 416.78906 410.81307 416.78906 407.58008 C 416.78906 403.19908 415.5372 399.28865 413.0332 395.84766 C 410.52821 392.40566 407.11125 389.22468 402.78125 386.30469 C 398.45225 383.38469 393.31223 380.56942 387.36523 377.85742 C 381.41824 375.14542 375.00123 372.3824 368.11523 369.56641 C 350.58625 362.26541 337.5191 353.34744 328.91211 342.81445 C 320.30412 332.28046 316 319.55656 316 304.64258 C 316 292.96159 318.34797 282.92429 323.04297 274.5293 C 327.73796 266.13331 334.12885 259.22478 342.21484 253.80078 C 350.30184 248.37779 359.66465 244.38703 370.30664 241.83203 C 380.94863 239.27703 392.21634 238 404.11133 238 z M 118 243 L 297 243 L 297 284.08203 L 232.7793 284.08203 L 232.7793 467 L 181.90625 467 L 181.90625 284.08203 L 118 284.08203 L 118 243 z "
     style="fill:#3178c6;fill-opacity:1" />
</svg>
